#tb 0: 1/25
#media_type 0: video
#codec_id 0: rawvideo
#dimensions 0: 352x288
#sar 0: 0/1
0,          0,          0,        1,   152064, 0xd5448f0e
0,          1,          1,        1,   152064, 0x93d022ba
0,          2,          2,        1,   152064, 0x1eaed76e
0,          3,          3,        1,   152064, 0xbbd54f09
0,          4,          4,        1,   152064, 0x175d6316
0,          5,          5,        1,   152064, 0x15ede384
0,          6,          6,        1,   152064, 0xb785e9ac
0,          7,          7,        1,   152064, 0xdbbb4ee6
0,          8,          8,        1,   152064, 0xaf27c827
0,          9,          9,        1,   152064, 0xbf3eeed4
